# xmcd
#
# Track frame offsets:
#	150
#	18348
#	30702
#	42696
#	56469
#	81001
#	91116
#	101648
#	115097
#	128794
#	141875
#	162391
#	174678
#	184770
#	193876
#	213391
#	239124
#
# Disc length: 3416 seconds
#
# Revision: 1
# Processed by: cddbd v1.5.2PL0 Copyright (c) Steve Scherf et al.
# Submitted via: audiograbber 1.83.01
#
DISCID=f20d5611
DTITLE=Marc Laferièrre - Jubilé, CD 2 
DYEAR=2005
DGENRE=Jazz
TTITLE0=Moonlight On The Nil
TTITLE1=Desmond Émerveille
TTITLE2=I Wait For My Phone
TTITLE3=Hollywood Mim 'S Dream
TTITLE4=F. B. Blues
TTITLE5=Tu M Plais Tant
TTITLE6=Les Oignons
TTITLE7=Moulin à Café
TTITLE8=Jazzap
TTITLE9=Impatience
TTITLE10=Bing Bang Bounce
TTITLE11=Cornet Chop Suey
TTITLE12=Mahogany Hall Stomp
TTITLE13=La Vie En Rose
TTITLE14=It S A Sin To Tell A Lie
TTITLE15=Who S Sorry Now
TTITLE16=Dans Les Rues D'Antibes
EXTD=YEAR: 2005
EXTT0=
EXTT1=
EXTT2=
EXTT3=
EXTT4=
EXTT5=
EXTT6=
EXTT7=
EXTT8=
EXTT9=
EXTT10=
EXTT11=
EXTT12=
EXTT13=
EXTT14=
EXTT15=
EXTT16=
PLAYORDER=
